<?xml version="1.0" encoding="UTF-8" standalone="no"?>
<!-- Generator: Adobe Illustrator 19.0.0, SVG Export Plug-In . SVG Version: 6.00 Build 0)  -->

<svg
   version="1.1"
   id="Layer_1"
   x="0px"
   y="0px"
   viewBox="0 0 501.976 501.976"
   style="enable-background:new 0 0 501.976 501.976;"
   xml:space="preserve"
   width="512"
   height="512"
   sodipodi:docname="next-bottom.svg"
   inkscape:version="1.2 (dc2aedaf03, 2022-05-15)"
   xmlns:inkscape="http://www.inkscape.org/namespaces/inkscape"
   xmlns:sodipodi="http://sodipodi.sourceforge.net/DTD/sodipodi-0.dtd"
   xmlns="http://www.w3.org/2000/svg"
   xmlns:svg="http://www.w3.org/2000/svg"><defs
   id="defs33" /><sodipodi:namedview
   id="namedview31"
   pagecolor="#ffffff"
   bordercolor="#000000"
   borderopacity="0.25"
   inkscape:showpageshadow="2"
   inkscape:pageopacity="0.0"
   inkscape:pagecheckerboard="0"
   inkscape:deskcolor="#d1d1d1"
   showgrid="false"
   inkscape:zoom="1.7128906"
   inkscape:cx="171.34778"
   inkscape:cy="257.16762"
   inkscape:window-width="1920"
   inkscape:window-height="1044"
   inkscape:window-x="0"
   inkscape:window-y="0"
   inkscape:window-maximized="1"
   inkscape:current-layer="Layer_1" />
<g
   id="g28"
   style="stroke:#ffffff;stroke-opacity:1;stroke-width:1.00003031;stroke-dasharray:none;opacity:0.99652778;fill:#ffffff;fill-opacity:1">
	<g
   id="g18"
   style="stroke:#ffffff;stroke-opacity:1;stroke-width:1.00003031;stroke-dasharray:none;fill:#ffffff;fill-opacity:1">
		<g
   id="g8"
   style="stroke:#ffffff;stroke-opacity:1;stroke-width:1.00003031;stroke-dasharray:none;fill:#ffffff;fill-opacity:1">
			<g
   id="g6"
   style="stroke:#ffffff;stroke-opacity:1;stroke-width:1.00003031;stroke-dasharray:none;fill:#ffffff;fill-opacity:1">
				
				<path
   d="M241.987,501.976c-13.271,0-25.746-5.167-35.13-14.551c-19.37-19.371-19.37-50.889,0-70.26l166.189-166.189      L206.857,84.787c-19.37-19.371-19.37-50.889,0-70.26c19.371-19.369,50.888-19.369,70.259,0l201.32,201.319      c9.383,9.384,14.551,21.86,14.551,35.13s-5.168,25.746-14.551,35.13L277.117,487.425      C267.733,496.809,255.257,501.976,241.987,501.976z M241.987,19.99c-7.602,0-15.201,2.892-20.988,8.679      c-11.572,11.572-11.572,30.402,0,41.975l173.26,173.261c3.905,3.905,3.905,10.237,0,14.143L221,431.308      c-11.573,11.572-11.573,30.402,0,41.975c5.605,5.606,13.059,8.693,20.987,8.693c7.928,0,15.381-3.087,20.987-8.693      l201.319-201.319c5.606-5.606,8.694-13.06,8.694-20.987s-3.087-15.381-8.694-20.987L262.974,28.669      C257.189,22.884,249.587,19.99,241.987,19.99z"
   id="path4"
   style="stroke:#ffffff;stroke-opacity:1;stroke-width:1.00003031;stroke-dasharray:none;fill:#ffffff;fill-opacity:1" />
			</g>
		</g>
		<g
   id="g12"
   style="stroke:#ffffff;stroke-opacity:1;stroke-width:1.00003031;stroke-dasharray:none;fill:#ffffff;fill-opacity:1">
			<path
   d="M442.646,245.976c-2.535,0-5.071-0.958-7.019-2.878l-13.969-13.768c-3.934-3.877-3.979-10.208-0.103-14.142     c3.876-3.934,10.208-3.98,14.142-0.103l13.969,13.768c3.934,3.877,3.979,10.208,0.103,14.142     C447.812,244.981,445.23,245.976,442.646,245.976z"
   id="path10"
   style="stroke:#ffffff;stroke-opacity:1;stroke-width:1.00003031;stroke-dasharray:none;fill:#ffffff;fill-opacity:1" />
		</g>
		<g
   id="g16"
   style="stroke:#ffffff;stroke-opacity:1;stroke-width:1.00003031;stroke-dasharray:none;fill:#ffffff;fill-opacity:1">
			<path
   d="M402.445,206.121c-2.535,0-5.071-0.958-7.019-2.878L241.064,51.098c-3.934-3.877-3.979-10.208-0.103-14.142     c3.876-3.934,10.209-3.98,14.142-0.103l154.361,152.145c3.934,3.877,3.979,10.208,0.103,14.142     C407.611,205.126,405.028,206.121,402.445,206.121z"
   id="path14"
   style="stroke:#ffffff;stroke-opacity:1;stroke-width:1.00003031;stroke-dasharray:none;fill:#ffffff;fill-opacity:1" />
		</g>
	</g>
	<g
   id="g26"
   style="stroke:#ffffff;stroke-opacity:1;stroke-width:1.00003031;stroke-dasharray:none;fill:#ffffff;fill-opacity:1">
		<g
   id="g24"
   style="stroke:#ffffff;stroke-opacity:1;stroke-width:1.00003031;stroke-dasharray:none;fill:#ffffff;fill-opacity:1">
			
			<path
   d="m 58.647,501.976 c -13.271,0 -25.746,-5.167 -35.13,-14.551 -19.371,-19.371 -19.371,-50.889 0,-70.26 L 189.706,250.976 23.517,84.787 c -19.371,-19.371 -19.371,-50.889 0,-70.26 19.371,-19.369 50.888,-19.369 70.259,0 l 201.32,201.319 c 9.383,9.384 14.551,21.86 14.551,35.13 0,13.27 -5.168,25.746 -14.551,35.13 L 93.776,487.425 c -9.384,9.384 -21.859,14.551 -35.129,14.551 z m 0,-481.986 c -7.602,0 -15.201,2.892 -20.988,8.679 -11.572,11.572 -11.572,30.402 0,41.975 l 173.26,173.261 c 3.905,3.905 3.905,10.237 0,14.143 l -173.26,173.26 c -11.573,11.572 -11.573,30.402 0,41.975 5.605,5.606 13.059,8.693 20.987,8.693 7.928,0 15.381,-3.087 20.987,-8.693 L 280.952,271.964 c 11.573,-11.572 11.573,-30.402 0,-41.975 L 79.634,28.669 C 73.848,22.884 66.246,19.99 58.647,19.99 Z"
   id="path22"
   style="display:inline;stroke:#ffffff;stroke-opacity:1;stroke-width:1.00003031;stroke-dasharray:none;fill:#ffffff;fill-opacity:1" />
		</g>
	</g>
</g>















</svg>
