<?xml version="1.0" encoding="UTF-8" standalone="no"?>
<!-- Generator: Adobe Illustrator 19.0.0, SVG Export Plug-In . SVG Version: 6.00 Build 0)  -->

<svg
   version="1.1"
   id="Layer_1"
   x="0px"
   y="0px"
   viewBox="0 0 502 502"
   style="enable-background:new 0 0 502 502;"
   xml:space="preserve"
   width="512"
   height="512"
   sodipodi:docname="pause-bottom.svg"
   inkscape:version="1.2 (dc2aedaf03, 2022-05-15)"
   xmlns:inkscape="http://www.inkscape.org/namespaces/inkscape"
   xmlns:sodipodi="http://sodipodi.sourceforge.net/DTD/sodipodi-0.dtd"
   xmlns="http://www.w3.org/2000/svg"
   xmlns:svg="http://www.w3.org/2000/svg"><defs
   id="defs27" /><sodipodi:namedview
   id="namedview25"
   pagecolor="#ffffff"
   bordercolor="#000000"
   borderopacity="0.25"
   inkscape:showpageshadow="2"
   inkscape:pageopacity="0.0"
   inkscape:pagecheckerboard="0"
   inkscape:deskcolor="#d1d1d1"
   showgrid="false"
   inkscape:zoom="1.7128906"
   inkscape:cx="199.95439"
   inkscape:cy="257.16762"
   inkscape:window-width="1920"
   inkscape:window-height="1044"
   inkscape:window-x="0"
   inkscape:window-y="0"
   inkscape:window-maximized="1"
   inkscape:current-layer="Layer_1" />
<g
   id="g22"
   style="display:inline;fill:#ffffff;fill-opacity:1;stroke:#ffffff;stroke-opacity:1">
	<g
   id="g6"
   style="fill:#ffffff;fill-opacity:1;stroke:#ffffff;stroke-opacity:1">
		
		<path
   d="M 149,502 C 115.364,502 88,474.636 88,441 V 61 c 0,-33.636 27.364,-61 61,-61 33.636,0 61,27.364 61,61 v 380 c 0,33.636 -27.364,61 -61,61 z m 0,-482 c -22.607,0 -41,18.393 -41,41 v 380 c 0,22.607 18.393,41 41,41 22.607,0 41,-18.393 41,-41 V 61 C 190,38.393 171.607,20 149,20 Z"
   id="path4"
   style="fill:#ffffff;fill-opacity:1;stroke:#ffffff;stroke-opacity:1" />
	</g>
	<g
   id="g12"
   style="fill:#ffffff;fill-opacity:1;stroke:#ffffff;stroke-opacity:1">
		
		<path
   d="m 353,502 c -33.636,0 -61,-27.364 -61,-61 V 61 c 0,-33.636 27.364,-61 61,-61 33.636,0 61,27.364 61,61 v 380 c 0,33.636 -27.364,61 -61,61 z m 0,-482 c -22.607,0 -41,18.393 -41,41 v 380 c 0,22.607 18.393,41 41,41 22.607,0 41,-18.393 41,-41 V 61 C 394,38.393 375.607,20 353,20 Z"
   id="path10"
   style="display:inline;fill:#ffffff;fill-opacity:1;stroke:#ffffff;stroke-opacity:1" />
	</g>
	<g
   id="g16"
   style="fill:#ffffff;fill-opacity:1;stroke:#ffffff;stroke-opacity:1">
		<path
   d="m 130,90.613 c -5.523,0 -10,-4.477 -10,-10 V 61 c 0,-5.523 4.477,-10 10,-10 5.523,0 10,4.477 10,10 v 19.613 c 0,5.523 -4.477,10 -10,10 z"
   id="path14"
   style="fill:#ffffff;fill-opacity:1;stroke:#ffffff;stroke-opacity:1" />
	</g>
	<g
   id="g20"
   style="fill:#ffffff;fill-opacity:1;stroke:#ffffff;stroke-opacity:1">
		<path
   d="m 130,363.335 c -5.523,0 -10,-4.477 -10,-10 v -235.56 c 0,-5.523 4.477,-10 10,-10 5.523,0 10,4.477 10,10 v 235.56 c 0,5.523 -4.477,10 -10,10 z"
   id="path18"
   style="display:inline;fill:#ffffff;fill-opacity:1;stroke:#ffffff;stroke-opacity:1" />
	</g>
</g>















</svg>
