<?xml version="1.0" encoding="UTF-8" standalone="no"?>
<!-- Generator: Adobe Illustrator 19.0.0, SVG Export Plug-In . SVG Version: 6.00 Build 0)  -->

<svg
   version="1.1"
   id="Layer_1"
   x="0px"
   y="0px"
   viewBox="0 0 512 512"
   style="enable-background:new 0 0 512 512;"
   xml:space="preserve"
   sodipodi:docname="play.svg"
   inkscape:version="1.2 (dc2aedaf03, 2022-05-15)"
   xmlns:inkscape="http://www.inkscape.org/namespaces/inkscape"
   xmlns:sodipodi="http://sodipodi.sourceforge.net/DTD/sodipodi-0.dtd"
   xmlns="http://www.w3.org/2000/svg"
   xmlns:svg="http://www.w3.org/2000/svg"><defs
   id="defs49" /><sodipodi:namedview
   id="namedview47"
   pagecolor="#ffffff"
   bordercolor="#000000"
   borderopacity="0.25"
   inkscape:showpageshadow="2"
   inkscape:pageopacity="0.0"
   inkscape:pagecheckerboard="0"
   inkscape:deskcolor="#d1d1d1"
   showgrid="false"
   inkscape:zoom="1.7128906"
   inkscape:cx="199.95439"
   inkscape:cy="257.16762"
   inkscape:window-width="1920"
   inkscape:window-height="1044"
   inkscape:window-x="0"
   inkscape:window-y="0"
   inkscape:window-maximized="1"
   inkscape:current-layer="Layer_1" />

<polygon
   style="fill:#F2F2F2;"
   points="195.825,391.629 376.351,256 195.825,120.371 "
   id="polygon4" />
<g
   id="g14">
	<path
   style="fill:#4d4d4d;fill-opacity:0.50190115"
   d="M256,512c-68.381,0-132.667-26.628-181.019-74.98C26.628,388.667,0,324.38,0,256   S26.628,123.333,74.981,74.98C123.333,26.628,187.619,0,256,0s132.667,26.628,181.019,74.98C485.372,123.333,512,187.62,512,256   s-26.628,132.667-74.981,181.02C388.667,485.372,324.381,512,256,512z M256,20.398C126.089,20.398,20.398,126.089,20.398,256   S126.089,491.602,256,491.602S491.602,385.911,491.602,256S385.911,20.398,256,20.398z"
   id="path6" />
	<path
   style="fill:#4D4D4D;"
   d="M195.824,401.828c-1.553,0-3.115-0.355-4.557-1.075c-3.458-1.727-5.641-5.26-5.641-9.124V120.371   c0-3.864,2.185-7.397,5.641-9.124c3.458-1.726,7.593-1.351,10.685,0.97l180.526,135.629c2.564,1.927,4.073,4.948,4.073,8.154   s-1.508,6.228-4.073,8.154L201.951,399.783C200.15,401.137,197.994,401.828,195.824,401.828z M206.024,140.791v230.418L359.371,256   L206.024,140.791z"
   id="path8" />
	<path
   style="fill:#4D4D4D;"
   d="M256,473.243c-5.632,0-10.199-4.566-10.199-10.199c0-5.633,4.567-10.199,10.199-10.199   c52.815,0,102.404-20.633,139.633-58.1c3.973-3.996,10.429-4.015,14.425-0.045c3.995,3.971,4.016,10.428,0.046,14.424   C369.016,450.471,314.287,473.243,256,473.243z"
   id="path10" />
	<path
   style="fill:#4D4D4D;"
   d="M430.396,377.825c-1.886,0-3.793-0.522-5.498-1.617c-4.741-3.041-6.118-9.351-3.076-14.092   c1.514-2.36,2.998-4.788,4.411-7.216c2.834-4.867,9.077-6.516,13.945-3.684c4.868,2.833,6.518,9.077,3.684,13.945   c-1.56,2.681-3.201,5.363-4.873,7.97C437.043,376.168,433.754,377.825,430.396,377.825z"
   id="path12" />
</g>















</svg>
