<?xml version="1.0" encoding="UTF-8" standalone="no"?>
<!-- Generator: Adobe Illustrator 19.0.0, SVG Export Plug-In . SVG Version: 6.00 Build 0)  -->

<svg
   version="1.1"
   id="Layer_1"
   x="0px"
   y="0px"
   viewBox="0 0 512 512"
   style="enable-background:new 0 0 512 512;"
   xml:space="preserve"
   sodipodi:docname="prev.svg"
   inkscape:version="1.2 (dc2aedaf03, 2022-05-15)"
   xmlns:inkscape="http://www.inkscape.org/namespaces/inkscape"
   xmlns:sodipodi="http://sodipodi.sourceforge.net/DTD/sodipodi-0.dtd"
   xmlns="http://www.w3.org/2000/svg"
   xmlns:svg="http://www.w3.org/2000/svg"><defs
   id="defs53" /><sodipodi:namedview
   id="namedview51"
   pagecolor="#ffffff"
   bordercolor="#000000"
   borderopacity="0.25"
   inkscape:showpageshadow="2"
   inkscape:pageopacity="0.0"
   inkscape:pagecheckerboard="0"
   inkscape:deskcolor="#d1d1d1"
   showgrid="false"
   inkscape:zoom="1.7128906"
   inkscape:cx="199.95439"
   inkscape:cy="257.16762"
   inkscape:window-width="1920"
   inkscape:window-height="1044"
   inkscape:window-x="0"
   inkscape:window-y="0"
   inkscape:window-maximized="1"
   inkscape:current-layer="Layer_1" />

<g
   id="g8">
	<rect
   x="156.048"
   y="120.371"
   style="fill:#F2F2F2;"
   width="54.056"
   height="271.258"
   id="rect4" />
	<polygon
   style="fill:#F2F2F2;"
   points="352.892,122.669 211.124,256 352.892,389.33  "
   id="polygon6" />
</g>
<g
   id="g18">
	<path
   style="fill:#4d4d4d;fill-opacity:0.09885932"
   d="M437.019,74.981C388.667,26.628,324.381,0,256,0C187.62,0,123.333,26.628,74.98,74.981   C26.628,123.333,0,187.619,0,256s26.628,132.667,74.98,181.019C123.333,485.372,187.62,512,256,512   c68.381,0,132.667-26.628,181.019-74.981C485.372,388.667,512,324.381,512,256S485.372,123.333,437.019,74.981z M256,491.602   c-129.911,0-235.602-105.69-235.602-235.602S126.089,20.398,256,20.398S491.602,126.089,491.602,256S385.911,491.602,256,491.602z"
   id="path10" />
	<path
   style="fill:#4D4D4D;"
   d="M345.905,396.759c1.93,1.814,4.441,2.77,6.99,2.77c1.366,0,2.742-0.274,4.045-0.837   c3.735-1.613,6.152-5.292,6.152-9.362V122.669c0-4.068-2.417-7.748-6.152-9.362c-3.734-1.616-8.071-0.856-11.034,1.933   L220.303,233.366V120.371c0-5.632-4.566-10.199-10.199-10.199h-54.056c-5.633,0-10.199,4.567-10.199,10.199v271.258   c0,5.632,4.566,10.199,10.199,10.199h54.056c5.633,0,10.199-4.567,10.199-10.199V278.634L345.905,396.759z M342.693,146.263   v219.474L226.011,256L342.693,146.263z M199.904,381.429h-33.657V130.57h33.657V381.429z"
   id="path12" />
	<path
   style="fill:#4D4D4D;"
   d="M395.633,394.744c-37.229,37.468-86.819,58.101-139.633,58.101c-5.633,0-10.199,4.567-10.199,10.199   c0,5.632,4.566,10.199,10.199,10.199c58.287,0,113.016-22.772,154.104-64.12c3.971-3.996,3.949-10.453-0.046-14.425   C406.062,390.728,399.606,390.748,395.633,394.744z"
   id="path14" />
	<path
   style="fill:#4D4D4D;"
   d="M440.181,351.218c-4.87-2.836-11.112-1.185-13.946,3.681c-1.417,2.434-2.902,4.862-4.413,7.218   c-3.041,4.741-1.663,11.05,3.078,14.091c1.705,1.093,3.612,1.616,5.497,1.616c3.359,0,6.647-1.657,8.595-4.694   c1.67-2.602,3.308-5.283,4.871-7.968C446.698,360.297,445.048,354.053,440.181,351.218z"
   id="path16" />
</g>















</svg>
