<?xml version="1.0" encoding="UTF-8" standalone="no"?>
<!-- Generator: Adobe Illustrator 19.0.0, SVG Export Plug-In . SVG Version: 6.00 Build 0)  -->

<svg
   version="1.1"
   id="Layer_1"
   x="0px"
   y="0px"
   viewBox="0 0 502 502"
   style="enable-background:new 0 0 502 502;"
   xml:space="preserve"
   width="512"
   height="512"
   sodipodi:docname="stop-bottom.svg"
   inkscape:version="1.2 (dc2aedaf03, 2022-05-15)"
   xmlns:inkscape="http://www.inkscape.org/namespaces/inkscape"
   xmlns:sodipodi="http://sodipodi.sourceforge.net/DTD/sodipodi-0.dtd"
   xmlns="http://www.w3.org/2000/svg"
   xmlns:svg="http://www.w3.org/2000/svg"><defs
   id="defs21" /><sodipodi:namedview
   id="namedview19"
   pagecolor="#ffffff"
   bordercolor="#000000"
   borderopacity="0.25"
   inkscape:showpageshadow="2"
   inkscape:pageopacity="0.0"
   inkscape:pagecheckerboard="0"
   inkscape:deskcolor="#d1d1d1"
   showgrid="false"
   inkscape:zoom="1.7128906"
   inkscape:cx="199.95439"
   inkscape:cy="257.16762"
   inkscape:window-width="1920"
   inkscape:window-height="1044"
   inkscape:window-x="0"
   inkscape:window-y="0"
   inkscape:window-maximized="1"
   inkscape:current-layer="Layer_1" />
<g
   id="g16"
   style="fill:#ffffff;fill-opacity:1;stroke:#ffffff;stroke-opacity:1">
	<g
   id="g6"
   style="fill:#ffffff;fill-opacity:1;stroke:#ffffff;stroke-opacity:1">
		
		<path
   d="M 492,502 H 10 C 4.478,502 0,497.523 0,492 V 10 C 0,4.477 4.478,0 10,0 h 482 c 5.522,0 10,4.477 10,10 v 482 c 0,5.523 -4.478,10 -10,10 z M 20,482 H 482 V 20 H 20 Z"
   id="path4"
   style="display:inline;fill:#ffffff;fill-opacity:1;stroke:#ffffff;stroke-opacity:1" />
	</g>
	<g
   id="g10"
   style="fill:#ffffff;fill-opacity:1;stroke:#ffffff;stroke-opacity:1">
		<path
   d="M45,76.613c-5.522,0-10-4.477-10-10V47c0-5.523,4.478-10,10-10s10,4.477,10,10v19.613C55,72.136,50.522,76.613,45,76.613z    "
   id="path8"
   style="fill:#ffffff;fill-opacity:1;stroke:#ffffff;stroke-opacity:1" />
	</g>
	<g
   id="g14"
   style="fill:#ffffff;fill-opacity:1;stroke:#ffffff;stroke-opacity:1">
		<path
   d="M45,349.335c-5.522,0-10-4.477-10-10v-235.56c0-5.523,4.478-10,10-10s10,4.477,10,10v235.56    C55,344.858,50.522,349.335,45,349.335z"
   id="path12"
   style="fill:#ffffff;fill-opacity:1;stroke:#ffffff;stroke-opacity:1" />
	</g>
</g>















</svg>
